<?xml version="1.0" encoding="UTF-8"?>
<svg version="1.1" xmlns="http://www.w3.org/2000/svg" width="640" height="640">
<path d="M0 0 C1.43454923 0.75562872 2.87156428 1.50662224 4.3125 2.25 C17.19056123 9.47818357 36.21344161 21.14141918 42.4609375 35.0078125 C43.38760978 38.43247092 43.15318012 40.66859078 42 44 C39.52158891 46.93496051 37.19170173 48.87219885 34 51 C34.60585938 51.21914062 35.21171875 51.43828125 35.8359375 51.6640625 C54.94032066 58.89433674 67.89233584 71.26664271 79 88 C80.01320313 89.38058594 80.01320313 89.38058594 81.046875 90.7890625 C83.57580466 94.94662286 85.03302878 99.21033827 86.5625 103.8125 C86.85318359 104.66392578 87.14386719 105.51535156 87.44335938 106.39257812 C88.0241861 108.09867543 88.59819838 109.80710824 89.1652832 111.51782227 C89.70292606 113.1165982 90.25995723 114.70904978 90.84057617 116.29272461 C92.83228586 121.82660215 93.70972032 127.08579981 94.1875 132.9375 C94.26645508 133.85136475 94.34541016 134.76522949 94.42675781 135.70678711 C96.0650095 156.16188418 95.32078554 176.37369532 89 196 C88.69394847 197.30922044 88.40000431 198.62140794 88.125 199.9375 C84.31508734 215.40705915 76.15600812 231.07985521 67 244 C66.5771875 244.67546875 66.154375 245.3509375 65.71875 246.046875 C42.26863899 283.40344718 1.63358141 308.52565159 -40.76074219 318.32568359 C-52.1563891 320.69791579 -63.39988985 321.34801912 -75.00585938 321.31567383 C-77.36635542 321.31251158 -79.72559463 321.33609823 -82.0859375 321.36132812 C-95.96288528 321.41930089 -109.16322693 319.32352231 -122.5625 315.6875 C-123.34786133 315.47585205 -124.13322266 315.2642041 -124.94238281 315.04614258 C-138.5055743 311.28603634 -150.79644972 305.98598447 -163 299 C-164.13501953 298.35417969 -164.13501953 298.35417969 -165.29296875 297.6953125 C-179.36392169 289.28175301 -204.6494357 272.81345904 -209 256 C-209.27360286 250.39585875 -208.03964843 246.70362941 -205 242 C-205.83402344 241.45472656 -206.66804688 240.90945313 -207.52734375 240.34765625 C-214.78144391 235.51987535 -221.11970736 230.49538601 -227 224 C-227.51304687 223.443125 -228.02609375 222.88625 -228.5546875 222.3125 C-231.37510941 219.10823369 -233.11895334 215.80399782 -235 212 C-235.81597656 210.58074219 -235.81597656 210.58074219 -236.6484375 209.1328125 C-244.17956583 196.01297356 -247.35868944 182.78367103 -249.421875 167.88671875 C-249.87043995 164.0999944 -249.87043995 164.0999944 -251 161 C-251.09387113 159.17766025 -251.13070591 157.3520984 -251.1328125 155.52734375 C-251.13410156 154.46322266 -251.13539063 153.39910156 -251.13671875 152.30273438 C-251.13285156 151.19220703 -251.12898437 150.08167969 -251.125 148.9375 C-251.13080078 147.2659082 -251.13080078 147.2659082 -251.13671875 145.56054688 C-251.13542969 144.49771484 -251.13414062 143.43488281 -251.1328125 142.33984375 C-251.13168457 141.36394287 -251.13055664 140.38804199 -251.12939453 139.38256836 C-251 137 -251 137 -250 135 C-249.78313987 133.65503453 -249.60842 132.30311752 -249.45703125 130.94921875 C-248.2847871 121.28940429 -246.71045732 111.98330731 -244 102.625 C-243.75096924 101.76479248 -243.50193848 100.90458496 -243.24536133 100.01831055 C-241.79290965 95.18711278 -240.07893094 90.60483203 -238 86 C-237.71092773 85.32533691 -237.42185547 84.65067383 -237.12402344 83.95556641 C-234.46855902 77.80442139 -231.42633987 71.89658991 -228.25 66 C-227.76273438 65.06671875 -227.27546875 64.1334375 -226.7734375 63.171875 C-223.72736556 57.5216483 -220.37754536 52.8656129 -215.99414062 48.18139648 C-214.02560101 46.02800503 -212.26982684 43.80248689 -210.515625 41.47265625 C-206.92018467 36.78290721 -202.9404335 32.59696735 -198.75 28.4375 C-198.00782227 27.69733643 -197.26564453 26.95717285 -196.50097656 26.19458008 C-191.70371061 21.48420604 -186.88881202 17.2917036 -181.296875 13.54296875 C-178.91308721 11.99188748 -178.91308721 11.99188748 -176.50390625 9.97265625 C-170.04599714 4.88491194 -162.19896435 1.55891021 -154.875 -2.125 C-154.23071045 -2.44952148 -153.5864209 -2.77404297 -152.92260742 -3.10839844 C-150.95579348 -4.08844737 -148.9813357 -5.04965768 -147 -6 C-146.307854 -6.33217529 -145.61570801 -6.66435059 -144.90258789 -7.0065918 C-99.98659538 -27.80298204 -42.70360571 -24.79477547 0 0 Z M-161 59 C-185.03322359 87.37004589 -197.76233032 120.59320918 -195 158 C-193.71173647 167.16990203 -192.21298568 177.1877019 -187 185 C-186.50345969 186.25639744 -186.04164448 187.52739526 -185.625 188.8125 C-179.19748745 206.56309164 -161.53553806 225.08966629 -145.09375 233.55078125 C-142.47203445 235.36543884 -141.39345444 237.15212749 -140 240 C-139.5 243.5625 -139.5 243.5625 -140 247 C-144.00918727 251.63562279 -149.64849874 252.66504443 -155.5234375 253.25219727 C-158.1822028 253.41565808 -160.83786407 253.53213479 -163.5 253.625 C-164.4178125 253.66367187 -165.335625 253.70234375 -166.28125 253.7421875 C-168.52064528 253.83549564 -170.76005254 253.92128185 -173 254 C-169.58368321 257.95620104 -165.75425429 259.85829543 -161.125 262.0625 C-160.43019531 262.40087891 -159.73539063 262.73925781 -159.01953125 263.08789062 C-157.65162935 263.75380897 -156.28194841 264.41608693 -154.91040039 265.07446289 C-153.20144868 265.90240359 -151.50776198 266.76168223 -149.81640625 267.625 C-133.42635085 275.62680236 -113.78419977 278.1766491 -95.75 278.1875 C-94.69425781 278.19974609 -93.63851562 278.21199219 -92.55078125 278.22460938 C-85.16675939 278.23816633 -78.23877526 277.41671916 -71 276 C-70.17097168 275.84861572 -69.34194336 275.69723145 -68.48779297 275.54125977 C-36.92311507 269.70986357 -7.48518529 252.86143495 12 227 C12.55171875 226.31292969 13.1034375 225.62585938 13.671875 224.91796875 C17.82799147 219.65855332 20.92845617 213.94295874 24 208 C24.38285156 207.27425781 24.76570312 206.54851562 25.16015625 205.80078125 C29.61947316 197.17039224 32.03181921 188.5091881 34 179 C34.20882812 177.99453125 34.41765625 176.9890625 34.6328125 175.953125 C37.12237985 163.77606635 37.12237985 163.77606635 35 152 C34.84446523 150.31504 34.72478271 148.62667869 34.625 146.9375 C33.27856159 131.46350632 24.56430568 115.69618763 13.1875 105.25 C-2.95068991 92.05465648 -20.71976161 86.71007066 -41.31176758 86.32739258 C-45.5975224 86.23194243 -49.15310119 86.1354832 -53 84 C-53.33 83.34 -53.66 82.68 -54 82 C-54.66 82 -55.32 82 -56 82 C-56.58914437 73.45740663 -56.58914437 73.45740663 -53.578125 69.56640625 C-43.90306344 59.96318921 -32.17268118 55.48702095 -19.375 51.75 C-18.49215332 51.49138184 -17.60930664 51.23276367 -16.69970703 50.96630859 C-7.21273816 48.30967375 1.74342404 47.85302086 11.5625 47.9375 C13.07553711 47.94426758 13.07553711 47.94426758 14.61914062 47.95117188 C17.07949147 47.96283231 19.53971239 47.97919622 22 48 C6.02936891 28.35639583 -23.67843246 19.59293327 -48 17 C-90.03959153 14.14586025 -132.35076168 26.5228885 -161 59 Z " fill="#202121" transform="translate(399,173)"/>
<path d="M0 0 C1.43454923 0.75562872 2.87156428 1.50662224 4.3125 2.25 C17.19056123 9.47818357 36.21344161 21.14141918 42.4609375 35.0078125 C43.38760978 38.43247092 43.15318012 40.66859078 42 44 C39.52158891 46.93496051 37.19170173 48.87219885 34 51 C34.60585938 51.21914062 35.21171875 51.43828125 35.8359375 51.6640625 C54.94032066 58.89433674 67.89233584 71.26664271 79 88 C80.01320313 89.38058594 80.01320313 89.38058594 81.046875 90.7890625 C83.57580466 94.94662286 85.03302878 99.21033827 86.5625 103.8125 C86.85318359 104.66392578 87.14386719 105.51535156 87.44335938 106.39257812 C88.0241861 108.09867543 88.59819838 109.80710824 89.1652832 111.51782227 C89.70292606 113.1165982 90.25995723 114.70904978 90.84057617 116.29272461 C92.83228586 121.82660215 93.70972032 127.08579981 94.1875 132.9375 C94.26645508 133.85136475 94.34541016 134.76522949 94.42675781 135.70678711 C96.0650095 156.16188418 95.32078554 176.37369532 89 196 C88.69394847 197.30922044 88.40000431 198.62140794 88.125 199.9375 C84.31508734 215.40705915 76.15600812 231.07985521 67 244 C66.5771875 244.67546875 66.154375 245.3509375 65.71875 246.046875 C42.26863899 283.40344718 1.63358141 308.52565159 -40.76074219 318.32568359 C-52.1563891 320.69791579 -63.39988985 321.34801912 -75.00585938 321.31567383 C-77.36635542 321.31251158 -79.72559463 321.33609823 -82.0859375 321.36132812 C-95.96288528 321.41930089 -109.16322693 319.32352231 -122.5625 315.6875 C-123.34786133 315.47585205 -124.13322266 315.2642041 -124.94238281 315.04614258 C-138.5055743 311.28603634 -150.79644972 305.98598447 -163 299 C-164.13501953 298.35417969 -164.13501953 298.35417969 -165.29296875 297.6953125 C-179.36392169 289.28175301 -204.6494357 272.81345904 -209 256 C-209.27360286 250.39585875 -208.03964843 246.70362941 -205 242 C-205.83402344 241.45472656 -206.66804688 240.90945313 -207.52734375 240.34765625 C-214.78144391 235.51987535 -221.11970736 230.49538601 -227 224 C-227.51304687 223.443125 -228.02609375 222.88625 -228.5546875 222.3125 C-231.37510941 219.10823369 -233.11895334 215.80399782 -235 212 C-235.81597656 210.58074219 -235.81597656 210.58074219 -236.6484375 209.1328125 C-244.17956583 196.01297356 -247.35868944 182.78367103 -249.421875 167.88671875 C-249.87043995 164.0999944 -249.87043995 164.0999944 -251 161 C-251.09387113 159.17766025 -251.13070591 157.3520984 -251.1328125 155.52734375 C-251.13410156 154.46322266 -251.13539063 153.39910156 -251.13671875 152.30273438 C-251.13285156 151.19220703 -251.12898437 150.08167969 -251.125 148.9375 C-251.13080078 147.2659082 -251.13080078 147.2659082 -251.13671875 145.56054688 C-251.13542969 144.49771484 -251.13414062 143.43488281 -251.1328125 142.33984375 C-251.13168457 141.36394287 -251.13055664 140.38804199 -251.12939453 139.38256836 C-251 137 -251 137 -250 135 C-249.78313987 133.65503453 -249.60842 132.30311752 -249.45703125 130.94921875 C-248.2847871 121.28940429 -246.71045732 111.98330731 -244 102.625 C-243.75096924 101.76479248 -243.50193848 100.90458496 -243.24536133 100.01831055 C-241.79290965 95.18711278 -240.07893094 90.60483203 -238 86 C-237.71092773 85.32533691 -237.42185547 84.65067383 -237.12402344 83.95556641 C-234.46855902 77.80442139 -231.42633987 71.89658991 -228.25 66 C-227.76273438 65.06671875 -227.27546875 64.1334375 -226.7734375 63.171875 C-223.72736556 57.5216483 -220.37754536 52.8656129 -215.99414062 48.18139648 C-214.02560101 46.02800503 -212.26982684 43.80248689 -210.515625 41.47265625 C-206.92018467 36.78290721 -202.9404335 32.59696735 -198.75 28.4375 C-198.00782227 27.69733643 -197.26564453 26.95717285 -196.50097656 26.19458008 C-191.70371061 21.48420604 -186.88881202 17.2917036 -181.296875 13.54296875 C-178.91308721 11.99188748 -178.91308721 11.99188748 -176.50390625 9.97265625 C-170.04599714 4.88491194 -162.19896435 1.55891021 -154.875 -2.125 C-154.23071045 -2.44952148 -153.5864209 -2.77404297 -152.92260742 -3.10839844 C-150.95579348 -4.08844737 -148.9813357 -5.04965768 -147 -6 C-146.307854 -6.33217529 -145.61570801 -6.66435059 -144.90258789 -7.0065918 C-99.98659538 -27.80298204 -42.70360571 -24.79477547 0 0 Z M-117 -10 C-118.39423078 -9.6660182 -119.79165706 -9.34519739 -121.19140625 -9.03515625 C-122.26745117 -8.79442383 -122.26745117 -8.79442383 -123.36523438 -8.54882812 C-124.83298479 -8.22396603 -126.30175277 -7.9036685 -127.77148438 -7.58789062 C-132.24677482 -6.57682141 -135.90467726 -5.12801615 -140 -3 C-142.19392551 -2.26782296 -144.40318836 -1.58010828 -146.625 -0.9375 C-153.3268933 0.88030586 -153.3268933 0.88030586 -158.8125 4.875 C-162.51659721 8.47326586 -166.95944052 10.5335423 -171.625 12.625 C-181.94614126 17.8249643 -190.264748 25.99546722 -198.375 34.0625 C-199.49817627 35.1774585 -199.49817627 35.1774585 -200.64404297 36.31494141 C-204.95642473 40.68304118 -208.8653944 45.19752246 -212.55834961 50.10131836 C-213.70784189 51.61522208 -214.93578043 53.06946335 -216.1875 54.5 C-218.28963334 57.39949427 -219.55178542 60.33749235 -220.94140625 63.625 C-221.96721766 65.92645143 -223.11901924 68.06708136 -224.375 70.25 C-232.51677245 84.60457112 -238.10012806 99.72653831 -241.53125 115.82421875 C-241.84684191 117.28909118 -242.18056958 118.75016038 -242.53125 120.20703125 C-247.87694161 142.6510747 -247.68971002 172.33252043 -239 194 C-237.70204472 196.02313862 -236.3726682 198.02678947 -235 200 C-234.32033324 201.66140763 -233.65061095 203.32700041 -233 205 C-232.34 205.66 -231.68 206.32 -231 207 C-230.27984312 208.70218898 -229.56099511 210.4049763 -228.85546875 212.11328125 C-227.53447967 215.02669552 -225.93059731 217.44662937 -224 220 C-223.34 220 -222.68 220 -222 220 C-222 220.66 -222 221.32 -222 222 C-220.52266748 223.57292235 -220.52266748 223.57292235 -218.5625 225.1875 C-217.83804688 225.80496094 -217.11359375 226.42242187 -216.3671875 227.05859375 C-213.28999139 229.58230079 -210.15261476 232.01890422 -206.98046875 234.421875 C-205 236 -205 236 -203.42578125 237.640625 C-201.93002312 239.25986276 -201.93002312 239.25986276 -199 240 C-199 241.32 -199 242.64 -199 244 C-199.804375 244.61875 -200.60875 245.2375 -201.4375 245.875 C-204.29521894 247.81814437 -204.29521894 247.81814437 -204.8125 251.25 C-204.874375 252.1575 -204.93625 253.065 -205 254 C-204.34 254 -203.68 254 -203 254 C-202.91621094 254.72574219 -202.83242187 255.45148438 -202.74609375 256.19921875 C-201.84147259 259.59510028 -200.42624616 261.23503357 -198.0625 263.8125 C-197.35222656 264.60269531 -196.64195312 265.39289063 -195.91015625 266.20703125 C-194.19359641 268.22812913 -194.19359641 268.22812913 -192 268 C-191.34 269.65 -190.68 271.3 -190 273 C-189.01 273 -188.02 273 -187 273 C-186.61134766 273.88945313 -186.61134766 273.88945313 -186.21484375 274.796875 C-184.91255529 277.15858141 -183.60701522 278.50886446 -181.5625 280.25 C-180.96566406 280.77078125 -180.36882812 281.2915625 -179.75390625 281.828125 C-177.93582307 283.2777773 -177.93582307 283.2777773 -175 283 C-174.505 284.485 -174.505 284.485 -174 286 C-173.01 286 -172.02 286 -171 286 C-171 286.66 -171 287.32 -171 288 C-170.01 288 -169.02 288 -168 288 C-168 288.66 -168 289.32 -168 290 C-156.34217843 296.49507202 -144.72596559 302.86585864 -132 307 C-130.98421875 307.33773438 -129.9684375 307.67546875 -128.921875 308.0234375 C-119.1143292 311.17417081 -109.16276845 313.35306915 -99 315 C-97.61832642 315.25499268 -97.61832642 315.25499268 -96.20874023 315.51513672 C-67.38589743 319.87047156 -35.93682631 313.76427358 -9.53125 302.08203125 C-7.14846444 301.06346397 -4.788102 300.25878897 -2.3125 299.5 C2.4876134 297.97908495 6.69315314 295.57596278 11 293 C11 292.01 11 291.02 11 290 C11.7115625 289.74992187 12.423125 289.49984375 13.15625 289.2421875 C23.23700278 284.83878175 31.72011496 275.87988162 39.59130859 268.34130859 C40.77105273 267.21799589 41.97110718 266.11606581 43.17578125 265.01953125 C54.75574187 254.15882284 63.64642954 239.9587687 71 226 C71 225.34 71 224.68 71 224 C71.66 224 72.32 224 73 224 C73.59748047 222.38931641 73.59748047 222.38931641 74.20703125 220.74609375 C74.74209782 219.30986242 75.27725914 217.87366638 75.8125 216.4375 C76.07353516 215.73302734 76.33457031 215.02855469 76.60351562 214.30273438 C77.86826337 210.91445956 79.17043077 207.56610037 80.6328125 204.2578125 C81.75501419 201.58376618 82.52609024 199.26536891 83.0625 196.4375 C83.58105181 193.88759646 84.14197016 191.59183578 85 189.125 C86.77260737 183.58560198 88 177.76544532 88 171.9375 C88 169.21064089 88.37855812 167.19499685 89 164.5625 C92.76715927 146.2416391 89.9041483 121.15519116 81.5625 104.3125 C81.26279297 103.68794922 80.96308594 103.06339844 80.65429688 102.41992188 C76.71935388 93.99096892 76.71935388 93.99096892 72 86 C71.34 86 70.68 86 70 86 C69.67 84.68 69.34 83.36 69 82 C68.34 82 67.68 82 67 82 C66.34 80.35 65.68 78.7 65 77 C64.34 77 63.68 77 63 77 C63 76.34 63 75.68 63 75 C62.34 75 61.68 75 61 75 C60.79117187 74.43152344 60.58234375 73.86304688 60.3671875 73.27734375 C54.06594353 62.78127165 37.25198864 57.66908458 26.25 54.75 C14.51751625 51.86895463 2.8157706 50.98408652 -9 54 C-10.99776929 54.50054227 -12.99600118 54.99901167 -14.99536133 55.49316406 C-17.27196732 56.06318124 -19.54201471 56.65609564 -21.8125 57.25 C-22.59431641 57.44207031 -23.37613281 57.63414062 -24.18164062 57.83203125 C-29.02014124 59.11744745 -32.50783045 60.78610619 -36.45117188 63.86669922 C-38.47613163 65.34839266 -40.67884896 66.07153958 -43 67 C-45.49302456 68.92257735 -45.49302456 68.92257735 -47.8125 71.125 C-48.99779297 72.21167969 -48.99779297 72.21167969 -50.20703125 73.3203125 C-50.79871094 73.87460938 -51.39039063 74.42890625 -52 75 C-50.91271327 78.65584042 -50.91271327 78.65584042 -48.19995117 81.14257812 C-45.84124068 82.06187579 -44.07373004 82.28167299 -41.55078125 82.34375 C-40.27750977 82.38822266 -40.27750977 82.38822266 -38.97851562 82.43359375 C-37.65883789 82.46646484 -37.65883789 82.46646484 -36.3125 82.5 C-29.62427256 82.67033688 -23.47755288 83.29292195 -17 85 C-16.33170166 85.17128418 -15.66340332 85.34256836 -14.97485352 85.51904297 C-6.48601231 87.78006484 0.71496612 90.51105606 7.9609375 95.64453125 C9.86951471 97.18453174 9.86951471 97.18453174 12 97 C12.33 97.99 12.66 98.98 13 100 C13.598125 100.268125 14.19625 100.53625 14.8125 100.8125 C17.91103506 102.49456189 19.102117 105.08991273 21 108 C21.66 108 22.32 108 23 108 C23.2475 108.721875 23.495 109.44375 23.75 110.1875 C24.87845686 113.0549764 24.87845686 113.0549764 26.875 115.3125 C29.52776258 118.66746444 31.23555435 122.12096578 33 126 C33.51240234 127.07701172 33.51240234 127.07701172 34.03515625 128.17578125 C43.90238903 150.4989885 41.24483634 176.37456369 33.25390625 198.796875 C31.72901246 202.69224231 30.04706591 206.35638075 28 210 C27.48373047 210.99966797 27.48373047 210.99966797 26.95703125 212.01953125 C22.01569012 221.37940949 15.86596319 230.32517643 8.703125 238.12109375 C7.30579288 239.66264592 5.98809712 241.27602668 4.6953125 242.90625 C2.01721333 246.13557447 -1.01251422 248.57825341 -4.375 251.0625 C-5.2419751 251.7136377 -5.2419751 251.7136377 -6.12646484 252.37792969 C-7.74652027 253.59125945 -9.37302841 254.79596008 -11 256 C-11.66515625 256.50917969 -12.3303125 257.01835937 -13.015625 257.54296875 C-17.20564378 260.68548284 -21.72898878 263.11995107 -26.3515625 265.5703125 C-28.09015935 266.50884708 -29.80005486 267.50303607 -31.47265625 268.5546875 C-34.20317021 270.11618698 -36.81464006 271.05702964 -39.8125 272 C-43.19533311 273.07249663 -46.52221881 274.19576196 -49.82421875 275.4921875 C-54.13705487 277.12587646 -58.4959225 278.16423261 -63 279.125 C-63.75539063 279.29386719 -64.51078125 279.46273438 -65.2890625 279.63671875 C-85.72817471 284.09679994 -108.61627711 283.61757707 -129 279 C-129.67546875 278.85014648 -130.3509375 278.70029297 -131.046875 278.54589844 C-145.77605378 275.18473409 -159.73906114 269.29610592 -172.2578125 260.78515625 C-174.73401056 258.81814144 -174.73401056 258.81814144 -177 259 C-177 258.34 -177 257.68 -177 257 C-178.32 257 -179.64 257 -181 257 C-181 256.34 -181 255.68 -181 255 C-181.94875 254.401875 -182.8975 253.80375 -183.875 253.1875 C-187.14949697 250.89535212 -187.95605637 249.75819708 -189 246 C-188.1651709 246.21112427 -188.1651709 246.21112427 -187.31347656 246.42651367 C-179.77198359 248.15078287 -172.46346615 248.3327986 -164.75 248.3125 C-162.88988281 248.33666992 -162.88988281 248.33666992 -160.9921875 248.36132812 C-159.79335937 248.36197266 -158.59453125 248.36261719 -157.359375 248.36328125 C-156.28139648 248.36626221 -155.20341797 248.36924316 -154.09277344 248.37231445 C-150.5042602 247.94032182 -148.09245377 246.84210284 -145 245 C-143.58975409 243.19310088 -143.58975409 243.19310088 -144 241 C-146.93803321 237.45707759 -150.06385783 235.28845475 -154 233 C-158.34680288 229.93985078 -162.2403999 226.7596001 -166 223 C-166.66 223 -167.32 223 -168 223 C-168.2475 222.443125 -168.495 221.88625 -168.75 221.3125 C-170.22924818 218.57589087 -171.93467439 216.32349131 -174 214 C-174.66 214 -175.32 214 -176 214 C-176.2475 213.2575 -176.495 212.515 -176.75 211.75 C-178.09904793 208.78209456 -179.68050687 207.24467077 -182 205 C-182.33 204.01 -182.66 203.02 -183 202 C-183.66 202 -184.32 202 -185 202 C-185.15855469 201.39414062 -185.31710938 200.78828125 -185.48046875 200.1640625 C-186.77835739 195.50313645 -188.26588368 191.23699273 -190.5 186.9375 C-192.86179203 182.36948308 -194.65268694 177.96298369 -196 173 C-196.27972656 172.01515625 -196.55945313 171.0303125 -196.84765625 170.015625 C-202.50523893 146.75375015 -198.68604723 123.36033017 -192.0859375 100.828125 C-191.25029027 97.88231823 -190.53341212 95.01081505 -190 92 C-189.34 92 -188.68 92 -188 92 C-187.7215625 91.27683594 -187.443125 90.55367188 -187.15625 89.80859375 C-182.154952 77.66017058 -174.11773162 66.25344186 -165.3515625 56.5078125 C-164.39944418 55.4456227 -163.48004628 54.35364869 -162.5859375 53.2421875 C-159.3813607 49.28359263 -156.00175424 46.28722783 -151.83203125 43.359375 C-149.98790351 42.06980058 -149.98790351 42.06980058 -148.57421875 40.515625 C-146.57282629 38.58872606 -144.40755725 37.38616932 -142 36 C-139.89564168 34.6878073 -137.7914874 33.37528735 -135.6875 32.0625 C-123.34249858 24.42949093 -123.34249858 24.42949093 -117 23 C-117 22.34 -117 21.68 -117 21 C-116.030625 20.896875 -115.06125 20.79375 -114.0625 20.6875 C-108.77048236 19.93149748 -103.82085949 18.08533977 -98.84765625 16.171875 C-87.60026367 12.02274645 -75.15641845 12.76253101 -63.3125 12.75 C-62.56087585 12.74866058 -61.80925171 12.74732117 -61.03485107 12.74594116 C-50.06028861 12.75018025 -39.68067486 13.27381376 -29 16 C-27.89398438 16.25136719 -26.78796875 16.50273437 -25.6484375 16.76171875 C-16.9612509 18.79878856 -9.39085041 20.90852527 -2 26 C-1.07058594 26.29519531 -0.14117187 26.59039062 0.81640625 26.89453125 C4.21120408 28.07333835 6.77264953 29.62639181 9.75 31.625 C13.10479391 34.15052847 13.10479391 34.15052847 17 35 C17 35.66 17 36.32 17 37 C17.8353125 37.3403125 17.8353125 37.3403125 18.6875 37.6875 C21 39 21 39 23.4375 41.5625 C26.17135383 44.1629951 27.27948427 44.90698711 31 45 C33.73398135 44.29042763 33.73398135 44.29042763 36 43 C37.42662219 40.14675563 37.31033868 38.16545451 37 35 C34.371988 30.85582723 30.87067404 27.94507807 27 25 C26.34 25 25.68 25 25 25 C25 24.34 25 23.68 25 23 C24.34 23 23.68 23 23 23 C23 22.34 23 21.68 23 21 C19.50840436 18.10230194 15.71964298 15.59544077 12 13 C11.31808594 12.49082031 10.63617188 11.98164063 9.93359375 11.45703125 C-1.22849732 3.40679588 -14.88451328 -2.11169134 -28 -6 C-30.96499303 -6.97527512 -33.92001813 -7.97210442 -36.8671875 -9 C-50.16695118 -13.42173961 -63.63007441 -14.34546171 -77.53710938 -14.26074219 C-79.63180203 -14.249965 -81.72564444 -14.26075437 -83.8203125 -14.2734375 C-95.11808195 -14.28599535 -106.16763478 -13.41440437 -117 -10 Z M-161 59 C-185.03322359 87.37004589 -197.76233032 120.59320918 -195 158 C-193.71173647 167.16990203 -192.21298568 177.1877019 -187 185 C-186.50345969 186.25639744 -186.04164448 187.52739526 -185.625 188.8125 C-179.19748745 206.56309164 -161.53553806 225.08966629 -145.09375 233.55078125 C-142.47203445 235.36543884 -141.39345444 237.15212749 -140 240 C-139.5 243.5625 -139.5 243.5625 -140 247 C-144.00918727 251.63562279 -149.64849874 252.66504443 -155.5234375 253.25219727 C-158.1822028 253.41565808 -160.83786407 253.53213479 -163.5 253.625 C-164.4178125 253.66367187 -165.335625 253.70234375 -166.28125 253.7421875 C-168.52064528 253.83549564 -170.76005254 253.92128185 -173 254 C-169.58368321 257.95620104 -165.75425429 259.85829543 -161.125 262.0625 C-160.43019531 262.40087891 -159.73539063 262.73925781 -159.01953125 263.08789062 C-157.65162935 263.75380897 -156.28194841 264.41608693 -154.91040039 265.07446289 C-153.20144868 265.90240359 -151.50776198 266.76168223 -149.81640625 267.625 C-133.42635085 275.62680236 -113.78419977 278.1766491 -95.75 278.1875 C-94.69425781 278.19974609 -93.63851562 278.21199219 -92.55078125 278.22460938 C-85.16675939 278.23816633 -78.23877526 277.41671916 -71 276 C-70.17097168 275.84861572 -69.34194336 275.69723145 -68.48779297 275.54125977 C-36.92311507 269.70986357 -7.48518529 252.86143495 12 227 C12.55171875 226.31292969 13.1034375 225.62585938 13.671875 224.91796875 C17.82799147 219.65855332 20.92845617 213.94295874 24 208 C24.38285156 207.27425781 24.76570312 206.54851562 25.16015625 205.80078125 C29.61947316 197.17039224 32.03181921 188.5091881 34 179 C34.20882812 177.99453125 34.41765625 176.9890625 34.6328125 175.953125 C37.12237985 163.77606635 37.12237985 163.77606635 35 152 C34.84446523 150.31504 34.72478271 148.62667869 34.625 146.9375 C33.27856159 131.46350632 24.56430568 115.69618763 13.1875 105.25 C-2.95068991 92.05465648 -20.71976161 86.71007066 -41.31176758 86.32739258 C-45.5975224 86.23194243 -49.15310119 86.1354832 -53 84 C-53.33 83.34 -53.66 82.68 -54 82 C-54.66 82 -55.32 82 -56 82 C-56.58914437 73.45740663 -56.58914437 73.45740663 -53.578125 69.56640625 C-43.90306344 59.96318921 -32.17268118 55.48702095 -19.375 51.75 C-18.49215332 51.49138184 -17.60930664 51.23276367 -16.69970703 50.96630859 C-7.21273816 48.30967375 1.74342404 47.85302086 11.5625 47.9375 C13.07553711 47.94426758 13.07553711 47.94426758 14.61914062 47.95117188 C17.07949147 47.96283231 19.53971239 47.97919622 22 48 C6.02936891 28.35639583 -23.67843246 19.59293327 -48 17 C-90.03959153 14.14586025 -132.35076168 26.5228885 -161 59 Z " fill="#020202" transform="translate(399,173)"/>
<path d="M0 0 C2.0625 0.4375 2.0625 0.4375 4 1 C-9.05150821 6.87690769 -22.06870903 11.65811639 -36 15 C-36.74056641 15.17934082 -37.48113281 15.35868164 -38.24414062 15.54345703 C-63.44842284 21.31704943 -92.44433609 19.62631853 -117 12 C-113.11042771 10.54866706 -110.08512714 11.44671213 -106.125 12.375 C-101.75821551 13.3841705 -97.42760571 14.30339003 -93 15 C-91.61941406 15.25438843 -91.61941406 15.25438843 -90.2109375 15.51391602 C-60.91519829 19.94881693 -27.53353052 13.88184944 -1 1 C-0.67 0.67 -0.34 0.34 0 0 Z " fill="#0F0F0F" transform="translate(393,472)"/>
<path d="M0 0 C0.66 0 1.32 0 2 0 C-4.17936378 16.61286241 -15.91970281 30.35782852 -28 43 C-28.763125 43.804375 -29.52625 44.60875 -30.3125 45.4375 C-38.55898157 53.91959533 -47.87235604 61.83620886 -58 68 C-58.66 68 -59.32 68 -60 68 C-60 67.34 -60 66.68 -60 66 C-58.51966597 64.9997743 -56.98631507 64.0780123 -55.4375 63.1875 C-47.56169129 58.31199937 -40.8171089 52.23941981 -34 46 C-33.48904785 45.53577637 -32.9780957 45.07155273 -32.45166016 44.59326172 C-18.878703 32.12169011 -8.2208111 16.44162221 0 0 Z " fill="#101010" transform="translate(470,397)"/>
<path d="M0 0 C0.75162415 -0.00133942 1.50324829 -0.00267883 2.27764893 -0.00405884 C13.25558752 0.00018156 23.62700293 0.53543954 34.3125 3.25 C35.51132812 3.51296875 36.71015625 3.7759375 37.9453125 4.046875 C43.88284024 5.39693931 43.88284024 5.39693931 46.3125 6.25 C46.8075 7.24 46.8075 7.24 47.3125 8.25 C46.02472656 7.96382812 44.73695313 7.67765625 43.41015625 7.3828125 C42.58273926 7.20008789 41.75532227 7.01736328 40.90283203 6.82910156 C39.27417975 6.4649957 37.64723337 6.09308277 36.02294922 5.70996094 C8.99968827 -0.58368294 -19.01106559 0.33002546 -45.296875 9.1640625 C-48.10245525 10.06262392 -50.7895457 10.75225976 -53.6875 11.25 C-53.6875 10.59 -53.6875 9.93 -53.6875 9.25 C-52.63691406 8.92386719 -51.58632813 8.59773437 -50.50390625 8.26171875 C-49.82811523 8.0512793 -49.15232422 7.84083984 -48.45605469 7.62402344 C-46.97667165 7.16363996 -45.49684757 6.70467151 -44.01660156 6.24707031 C-40.28336701 5.08711863 -36.60121844 3.86624751 -32.9375 2.5 C-22.61864982 -0.9156882 -10.77558464 0.0114007 0 0 Z " fill="#0F0F0F" transform="translate(335.6875,184.75)"/>
<path d="M0 0 C0.66 0.33 1.32 0.66 2 1 C0.83333333 2.02083333 -0.33333333 3.04166667 -1.5 4.0625 C-2.24121094 4.71347656 -2.98242188 5.36445313 -3.74609375 6.03515625 C-5.08257056 7.20023049 -6.42626521 8.35724196 -7.78515625 9.49609375 C-17.93144815 18.08141766 -27.5023854 27.78428845 -36 38 C-37.14454121 39.33444267 -38.2903369 40.66781059 -39.4375 42 C-40.283125 42.99 -41.12875 43.98 -42 45 C-42 40.56241502 -39.27121768 38.15791226 -36.5625 34.875 C-35.98773926 34.17503906 -35.41297852 33.47507813 -34.82080078 32.75390625 C-24.85200831 20.84108022 -14.03480558 9.5474135 -1 1 C-0.67 0.67 -0.34 0.34 0 0 Z " fill="#0F0F0F" transform="translate(224,187)"/>
<path d="M0 0 C0.33 0 0.66 0 1 0 C2.01355527 26.20228077 -3.20509769 53.44610568 -15 77 C-15.99 77.99 -15.99 77.99 -17 79 C-16.35993118 75.38165178 -15.39837991 72.07003557 -14.125 68.625 C-13.76921875 67.66078125 -13.4134375 66.6965625 -13.046875 65.703125 C-12.21996454 63.56796813 -11.31161081 61.46436258 -10.375 59.375 C-8.98070665 55.9526436 -8.19819277 52.719419 -7.46484375 49.11328125 C-7 47 -7 47 -6 44.125 C-4.22739263 38.58560198 -3 32.76544532 -3 26.9375 C-3 24.22409776 -2.64677952 22.13139023 -2.0625 19.5 C-0.67414057 13.0603754 -0.35943315 6.5643843 0 0 Z " fill="#0F0F0F" transform="translate(489,318)"/>
<path d="M0 0 C2.29055771 -0.00217275 4.58062168 -0.02034252 6.87109375 -0.03930664 C16.48503798 -0.07466059 25.69519637 0.64280223 35.19140625 2.18530273 C35.19140625 2.51530273 35.19140625 2.84530273 35.19140625 3.18530273 C34.22928223 3.11529053 33.2671582 3.04527832 32.27587891 2.97314453 C23.06274753 2.33231666 13.88946359 1.99891809 4.65429688 2 C2.55969405 1.99779567 0.46560572 1.97947275 -1.62890625 1.96069336 C-12.94857887 1.91418969 -23.94231361 2.77627367 -34.80859375 6.18530273 C-39.49212533 7.37866331 -43.93946691 8.49943995 -48.80859375 8.18530273 C-44.29034132 5.74762903 -39.58939244 4.78633064 -34.62109375 3.62280273 C-33.25887695 3.29119141 -33.25887695 3.29119141 -31.86914062 2.95288086 C-21.20580367 0.42634934 -10.92258601 -0.0011551 0 0 Z " fill="#0F0F0F" transform="translate(316.80859375,157.814697265625)"/>
<path d="M0 0 C0 3 0 3 -1.35546875 4.6484375 C-1.96003906 5.21820313 -2.56460938 5.78796875 -3.1875 6.375 C-3.82171875 6.98214844 -4.4559375 7.58929688 -5.109375 8.21484375 C-6.04523438 9.09849609 -6.04523438 9.09849609 -7 10 C-7.98280891 10.97551082 -8.96254474 11.95413996 -9.9375 12.9375 C-10.618125 13.618125 -11.29875 14.29875 -12 15 C-10.4467033 11.52935269 -8.3770513 8.77070538 -6 5.8125 C-5.29875 4.93207031 -4.5975 4.05164063 -3.875 3.14453125 C-2 1 -2 1 0 0 Z " fill="#151515" transform="translate(193,217)"/>
<path d="M0 0 C0.66 0.33 1.32 0.66 2 1 C-4.44648852 5.97819938 -10.93032566 10.24684391 -19 12 C-21.3203125 11.59375 -21.3203125 11.59375 -23 11 C-22.26136719 10.70867187 -21.52273438 10.41734375 -20.76171875 10.1171875 C-14.278671 7.49760785 -8.20797368 4.58614103 -2.1796875 1.0390625 C-1.46039063 0.69617188 -0.74109375 0.35328125 0 0 Z " fill="#101010" transform="translate(376,435)"/>
<path d="M0 0 C0.66 0.33 1.32 0.66 2 1 C-4.44140625 5.79947917 -4.44140625 5.79947917 -7.4375 6.875 C-11.60556311 8.70488136 -14.68797251 11.926307 -18 15 C-18 12 -18 12 -15.1875 9.1875 C-10.597973 5.44440216 -5.44986134 2.32274356 0 0 Z " fill="#101010" transform="translate(366,233)"/>
<path d="M0 0 C-3.04544267 2.61037943 -5.36645054 3.51104605 -9.3125 4.125 C-10.27414062 4.2796875 -11.23578125 4.434375 -12.2265625 4.59375 C-13.59941406 4.79484375 -13.59941406 4.79484375 -15 5 C-16.12535156 5.17015625 -16.12535156 5.17015625 -17.2734375 5.34375 C-18.84717325 5.5749928 -20.42331891 5.78977585 -22 6 C-18.71196932 3.80797954 -15.91745739 2.95741384 -12.125 1.875 C-10.91070312 1.52179688 -9.69640625 1.16859375 -8.4453125 0.8046875 C-5.4558555 0.10646965 -3.04397245 -0.1736106 0 0 Z " fill="#0F0F0F" transform="translate(393,226)"/>
<path d="M0 0 C0.66 0.33 1.32 0.66 2 1 C0.59023295 4.03852705 -1.08870228 6.5939595 -3.125 9.25 C-3.66382813 9.95640625 -4.20265625 10.6628125 -4.7578125 11.390625 C-5.16773438 11.92171875 -5.57765625 12.4528125 -6 13 C-6.61328125 11.16796875 -6.61328125 11.16796875 -7 9 C-5.21482174 6.35301155 -3.87978754 4.43989377 -1 3 C-0.67 2.01 -0.34 1.02 0 0 Z " fill="#111111" transform="translate(201,414)"/>
<path d="M0 0 C-1.26239712 0.86658615 -2.53527501 1.71792059 -3.8125 2.5625 C-4.87404297 3.27599609 -4.87404297 3.27599609 -5.95703125 4.00390625 C-8 5 -8 5 -11 4 C-3.77464789 -1.88732394 -3.77464789 -1.88732394 0 0 Z " fill="#111111" transform="translate(253,173)"/>
</svg>
