<?xml version="1.0" encoding="utf-8" ?>
<svg xmlns="http://www.w3.org/2000/svg" xmlns:xlink="http://www.w3.org/1999/xlink" width="525" height="514">
	<path fill="#292929" transform="scale(1.60061 1.60125)" d="M172.136 3.10743C174.042 3.01649 175.945 3.32799 177.723 4.02165C181.272 5.40411 184.188 8.34314 185.683 11.834C187.049 15.0268 187.102 18.9197 185.754 22.1296C183.942 26.4447 180.108 28.8114 175.965 30.5371C179.56 39.9681 182.232 49.8409 185.203 59.4818C198.617 60.5937 212.749 63.7006 224.797 69.7698C242.765 78.8216 251.285 92.3264 257.434 110.884C259.838 111.551 262.13 112.258 264.323 113.491C270.843 117.156 275.157 124.138 277.156 131.194C279.967 141.118 279.282 152.537 274.183 161.612C270.665 167.875 265.56 172.488 258.534 174.467C257.483 182.283 254.247 190.611 250.304 197.403C243.651 208.863 231.067 220.698 218.005 224.18C221.573 238.776 222.767 252.989 221.356 267.971C220.017 282.179 215.738 297.39 204.317 306.798C190.821 317.915 170.744 318.039 154.285 316.425C151.52 315.995 148.77 315.505 146.059 314.803C134.789 311.885 124.976 305.562 119.035 295.373C108.5 277.303 109.803 245.038 115.013 225.42C108.868 224.563 101.072 220.069 96.0891 216.481C82.6265 206.789 73.1524 191.189 70.5099 174.819C65.3257 174.638 60.7537 172.661 57.0191 169.068C50.0201 162.334 47.222 152.558 47.0622 143.088C46.9058 133.82 49.7164 124.239 56.2864 117.51C60.5516 113.142 65.6632 111.158 71.7316 111.076C73.6821 100.693 80.4721 88.9575 87.8132 81.4425C106.044 62.7796 135.885 58.7954 160.778 58.5001C162.968 49.2363 167.334 40.4525 169.573 31.2193C169.528 31.0736 169.548 30.8882 169.439 30.7821C168.701 30.0665 165.1 28.9924 163.635 27.8094C160.877 25.5812 159.142 21.8592 158.803 18.3731C158.436 14.647 159.581 10.9294 161.98 8.05529C164.586 4.98915 168.179 3.40999 172.136 3.10743Z"/>
	<path fill="#777" transform="scale(1.60061 1.60125)" d="M171.807 81.6442C177.971 80.9974 184.648 81.4099 190.821 81.8879C207.717 83.1964 226.397 87.4265 237.865 100.919C249.56 114.678 251.634 135.673 250.194 153.015C248.912 168.445 244.303 184.287 232.053 194.601C220.654 204.198 200.937 208.678 186.351 207.4C190.998 209.382 195.829 210.51 200.082 213.39C207.238 218.236 210.745 227.005 212.261 235.198C214.859 249.232 214.574 268.053 206.121 280.244C200.772 287.96 192.623 290.601 183.808 292.217C183.693 292.235 183.578 292.252 183.462 292.268C172.345 293.794 158.639 292.766 149.397 285.746C141.68 279.885 138.626 270.552 137.398 261.297C135.568 247.508 136.063 229.996 144.955 218.466C150.684 211.039 158.904 208.622 167.833 207.456C153.809 206.494 138.136 203.141 127.141 193.889C115.384 183.995 111.01 168.715 109.733 153.943C108.162 135.759 110.28 114.574 122.512 100.093C134.556 85.8363 154.34 83.1411 171.807 81.6442Z"/>
	<path fill="#292929" transform="scale(1.60061 1.60125)" d="M140.881 112.551C144.312 112.269 147.748 113.028 150.741 114.728C155.547 117.428 158.644 122.275 160.064 127.509C161.878 134.122 160.982 141.185 157.575 147.136C154.595 152.246 150.33 154.949 144.724 156.448C140.78 156.961 136.998 156.113 133.633 153.971C128.873 150.94 125.768 145.483 124.617 140.039C123.277 133.704 124.182 126.575 127.791 121.121C130.96 116.331 135.325 113.691 140.881 112.551Z"/>
	<path fill="#292929" transform="scale(1.60061 1.60125)" d="M216.431 106.344C219.903 106.016 223.544 107.068 226.455 108.942C231.211 112.004 234.226 117.341 235.328 122.809C236.659 129.415 235.452 136.527 231.67 142.143C228.529 146.807 224.294 149.198 218.878 150.278C214.576 150.232 210.38 149.098 206.964 146.398C202.332 142.737 199.68 136.912 199.049 131.128C198.35 124.712 199.943 117.84 204.081 112.803C207.267 108.924 211.47 106.857 216.431 106.344Z"/>
	<path fill="#D6D6D6" transform="scale(1.60061 1.60125)" d="M210.323 164.846L212.855 164.604C212.604 168.557 211.863 172.205 209.766 175.639C205.359 182.852 196.872 187.251 188.858 189.141C178.468 191.592 167.527 190.732 158.313 185.062C153.709 181.575 151.474 178.008 149.755 172.558C157.294 172.198 164.899 170.791 172.376 169.772C185.01 168.017 197.66 166.375 210.323 164.846Z"/>
	<path fill="#292929" transform="scale(1.60061 1.60125)" d="M177.164 252.899C181.794 251.909 186.345 254.876 187.306 259.512C188.268 264.147 185.273 268.68 180.632 269.613C176.03 270.538 171.545 267.575 170.592 262.979C169.638 258.383 172.574 253.88 177.164 252.899Z"/>
	<path fill="#292929" transform="scale(1.60061 1.60125)" d="M177.359 227.635C181.951 226.764 186.39 229.75 187.314 234.331C188.239 238.913 185.306 243.386 180.735 244.364C177.731 245.007 174.612 243.986 172.571 241.689C170.529 239.392 169.88 236.176 170.871 233.267C171.862 230.359 174.34 228.207 177.359 227.635Z"/>
	<path fill="#777" transform="scale(1.60061 1.60125)" d="M169.555 12.8761C172.584 12.251 175.55 14.1838 176.202 17.2066C176.853 20.2295 174.947 23.2127 171.93 23.891C170.32 24.2529 168.633 23.8912 167.314 22.9015C165.994 21.9118 165.174 20.3935 165.071 18.7471C164.895 15.9465 166.807 13.4433 169.555 12.8761Z"/>
</svg>
